<mxfile host="app.diagrams.net" modified="2024-03-28T12:51:40.808Z" agent="Mozilla/5.0 (Macintosh; Intel Mac OS X 10.15; rv:123.0) Gecko/20100101 Firefox/123.0" version="24.2.0" etag="uHW4K41x94LRJOCSwZ_J" type="github">
  <diagram name="Pagina-1" id="htGC7xeGNV_bWYydH5OV">
    <mxGraphModel>
      <root>
        <mxCell id="0" />
        <mxCell id="1" parent="0" />
      </root>
    </mxGraphModel>
  </diagram>
</mxfile>
